# MagicaVoxel @ Ephtracy

# group
o 

# material
mtllib factory4.2-30.mtl
usemtl palette

# normals
vn 1 0 0
vn -1 0 0
vn 0 0 -1
vn 0 0 1
vn 0 -1 0
vn 0 1 0

# texcoords
vt 0.00195313 0.5
vt 0.00585938 0.5
vt 0.0253906 0.5

# verts
v 20.6 0.6 6.1
v 20.6 0.6 6.2
v 20.6 5.1 6.1
v 20.6 5.1 6.2
v 20.5 0.5 6.1
v 20.5 0.5 6.2
v 20.5 0.6 6.1
v 20.5 0.6 6.2
v 20.5 0.7 6.2
v 20.5 0.7 6.3
v 20.5 5 6.2
v 20.5 5 6.3
v 20.5 5.1 6.1
v 20.5 5.1 6.2
v 20.5 5.2 6.1
v 20.5 5.2 6.2
v 20.4 0.4 6.1
v 20.4 0.4 6.2
v 20.4 0.5 6.1
v 20.4 0.5 6.2
v 20.4 0.6 6.2
v 20.4 0.6 6.3
v 20.4 0.7 6.2
v 20.4 0.7 6.3
v 20.4 0.9 6.3
v 20.4 0.9 6.4
v 20.4 4.8 6.3
v 20.4 4.8 6.4
v 20.4 5 6.2
v 20.4 5 6.3
v 20.4 5.1 6.2
v 20.4 5.1 6.3
v 20.4 5.2 6.1
v 20.4 5.2 6.2
v 20.4 5.3 6.1
v 20.4 5.3 6.2
v 20.3 0.5 6.2
v 20.3 0.5 6.3
v 20.3 0.6 6.2
v 20.3 0.6 6.3
v 20.3 0.8 6.3
v 20.3 0.8 6.4
v 20.3 0.9 6.3
v 20.3 0.9 6.4
v 20.3 4.8 6.3
v 20.3 4.8 6.4
v 20.3 4.9 6.3
v 20.3 4.9 6.4
v 20.3 5.1 6.2
v 20.3 5.1 6.3
v 20.3 5.2 6.2
v 20.3 5.2 6.3
v 20.2 0.7 6.3
v 20.2 0.7 6.4
v 20.2 0.8 6.3
v 20.2 0.8 6.4
v 20.2 4.9 6.3
v 20.2 4.9 6.4
v 20.2 5 6.3
v 20.2 5 6.4
v 20.1 0.6 6.3
v 20.1 0.6 6.4
v 20.1 0.7 6.3
v 20.1 0.7 6.4
v 20.1 5 6.3
v 20.1 5 6.4
v 20.1 5.1 6.3
v 20.1 5.1 6.4
v 15.2 2.4 6.4
v 15.2 2.4 6.5
v 15.2 3.3 6.4
v 15.2 3.3 6.5
v 15.1 2.5 6.5
v 15.1 2.5 6.6
v 15.1 3.2 6.5
v 15.1 3.2 6.6
v 14.9 2.5 6.5
v 14.9 2.5 6.6
v 14.9 3.2 6.5
v 14.9 3.2 6.6
v 14.8 2.4 6.4
v 14.8 2.4 6.5
v 14.8 3.3 6.4
v 14.8 3.3 6.5
v 14.4 0.6 6.3
v 14.4 0.6 6.4
v 14.4 0.7 6.3
v 14.4 0.7 6.4
v 14.4 5 6.3
v 14.4 5 6.4
v 14.4 5.1 6.3
v 14.4 5.1 6.4
v 14.3 0.7 6.3
v 14.3 0.7 6.4
v 14.3 0.8 6.3
v 14.3 0.8 6.4
v 14.3 4.9 6.3
v 14.3 4.9 6.4
v 14.3 5 6.3
v 14.3 5 6.4
v 14.2 0.5 6.2
v 14.2 0.5 6.3
v 14.2 0.6 6.2
v 14.2 0.6 6.3
v 14.2 0.8 6.3
v 14.2 0.8 6.4
v 14.2 0.9 6.3
v 14.2 0.9 6.4
v 14.2 4.8 6.3
v 14.2 4.8 6.4
v 14.2 4.9 6.3
v 14.2 4.9 6.4
v 14.2 5.1 6.2
v 14.2 5.1 6.3
v 14.2 5.2 6.2
v 14.2 5.2 6.3
v 14.1 0.4 6.1
v 14.1 0.4 6.2
v 14.1 0.5 6.1
v 14.1 0.5 6.2
v 14.1 0.6 6.2
v 14.1 0.6 6.3
v 14.1 0.7 6.2
v 14.1 0.7 6.3
v 14.1 0.9 6.3
v 14.1 0.9 6.4
v 14.1 4.8 6.3
v 14.1 4.8 6.4
v 14.1 5 6.2
v 14.1 5 6.3
v 14.1 5.1 6.2
v 14.1 5.1 6.3
v 14.1 5.2 6.1
v 14.1 5.2 6.2
v 14.1 5.3 6.1
v 14.1 5.3 6.2
v 14 0.5 6.1
v 14 0.5 6.2
v 14 0.6 6.1
v 14 0.6 6.2
v 14 0.7 6.2
v 14 0.7 6.3
v 14 5 6.2
v 14 5 6.3
v 14 5.1 6.1
v 14 5.1 6.2
v 14 5.2 6.1
v 14 5.2 6.2
v 13.9 0.6 6.1
v 13.9 0.6 6.2
v 13.9 5.1 6.1
v 13.9 5.1 6.2
v 20.6 0.6 6.1
v 20.6 5.1 6.1
v 20.5 0.5 6.1
v 20.5 0.6 6.1
v 20.5 5.1 6.1
v 20.5 5.2 6.1
v 20.4 0.4 6.1
v 20.4 0.5 6.1
v 20.4 5.2 6.1
v 20.4 5.3 6.1
v 14.1 0.4 6.1
v 14.1 0.5 6.1
v 14.1 5.2 6.1
v 14.1 5.3 6.1
v 14 0.5 6.1
v 14 0.6 6.1
v 14 5.1 6.1
v 14 5.2 6.1
v 13.9 0.6 6.1
v 13.9 5.1 6.1
v 20.6 0.6 6.2
v 20.6 5.1 6.2
v 20.5 0.5 6.2
v 20.5 0.6 6.2
v 20.5 0.7 6.2
v 20.5 5 6.2
v 20.5 5.1 6.2
v 20.5 5.2 6.2
v 20.4 0.4 6.2
v 20.4 0.5 6.2
v 20.4 0.6 6.2
v 20.4 0.7 6.2
v 20.4 5 6.2
v 20.4 5.1 6.2
v 20.4 5.2 6.2
v 20.4 5.3 6.2
v 20.3 0.5 6.2
v 20.3 0.6 6.2
v 20.3 5.1 6.2
v 20.3 5.2 6.2
v 14.2 0.5 6.2
v 14.2 0.6 6.2
v 14.2 5.1 6.2
v 14.2 5.2 6.2
v 14.1 0.4 6.2
v 14.1 0.5 6.2
v 14.1 0.6 6.2
v 14.1 0.7 6.2
v 14.1 5 6.2
v 14.1 5.1 6.2
v 14.1 5.2 6.2
v 14.1 5.3 6.2
v 14 0.5 6.2
v 14 0.6 6.2
v 14 0.7 6.2
v 14 5 6.2
v 14 5.1 6.2
v 14 5.2 6.2
v 13.9 0.6 6.2
v 13.9 5.1 6.2
v 20.5 0.7 6.3
v 20.5 5 6.3
v 20.4 0.6 6.3
v 20.4 0.7 6.3
v 20.4 0.9 6.3
v 20.4 4.8 6.3
v 20.4 5 6.3
v 20.4 5.1 6.3
v 20.3 0.5 6.3
v 20.3 0.6 6.3
v 20.3 0.8 6.3
v 20.3 0.9 6.3
v 20.3 4.8 6.3
v 20.3 4.9 6.3
v 20.3 5.1 6.3
v 20.3 5.2 6.3
v 20.2 0.7 6.3
v 20.2 0.8 6.3
v 20.2 4.9 6.3
v 20.2 5 6.3
v 20.1 0.6 6.3
v 20.1 0.7 6.3
v 20.1 5 6.3
v 20.1 5.1 6.3
v 14.4 0.6 6.3
v 14.4 0.7 6.3
v 14.4 5 6.3
v 14.4 5.1 6.3
v 14.3 0.7 6.3
v 14.3 0.8 6.3
v 14.3 4.9 6.3
v 14.3 5 6.3
v 14.2 0.5 6.3
v 14.2 0.6 6.3
v 14.2 0.8 6.3
v 14.2 0.9 6.3
v 14.2 4.8 6.3
v 14.2 4.9 6.3
v 14.2 5.1 6.3
v 14.2 5.2 6.3
v 14.1 0.6 6.3
v 14.1 0.7 6.3
v 14.1 0.9 6.3
v 14.1 4.8 6.3
v 14.1 5 6.3
v 14.1 5.1 6.3
v 14 0.7 6.3
v 14 5 6.3
v 20.4 0.9 6.4
v 20.4 4.8 6.4
v 20.3 0.8 6.4
v 20.3 0.9 6.4
v 20.3 4.8 6.4
v 20.3 4.9 6.4
v 20.2 0.7 6.4
v 20.2 0.8 6.4
v 20.2 4.9 6.4
v 20.2 5 6.4
v 20.1 0.6 6.4
v 20.1 0.7 6.4
v 20.1 5 6.4
v 20.1 5.1 6.4
v 15.2 2.4 6.4
v 15.2 3.3 6.4
v 14.8 2.4 6.4
v 14.8 3.3 6.4
v 14.4 0.6 6.4
v 14.4 0.7 6.4
v 14.4 5 6.4
v 14.4 5.1 6.4
v 14.3 0.7 6.4
v 14.3 0.8 6.4
v 14.3 4.9 6.4
v 14.3 5 6.4
v 14.2 0.8 6.4
v 14.2 0.9 6.4
v 14.2 4.8 6.4
v 14.2 4.9 6.4
v 14.1 0.9 6.4
v 14.1 4.8 6.4
v 15.2 2.4 6.5
v 15.2 3.3 6.5
v 15.1 2.5 6.5
v 15.1 3.2 6.5
v 14.9 2.5 6.5
v 14.9 3.2 6.5
v 14.8 2.4 6.5
v 14.8 3.3 6.5
v 15.1 2.5 6.6
v 15.1 3.2 6.6
v 14.9 2.5 6.6
v 14.9 3.2 6.6
v 20.4 0.4 6.1
v 14.1 0.4 6.1
v 20.4 0.4 6.2
v 14.1 0.4 6.2
v 20.5 0.5 6.1
v 20.4 0.5 6.1
v 14.1 0.5 6.1
v 14 0.5 6.1
v 20.5 0.5 6.2
v 20.4 0.5 6.2
v 20.3 0.5 6.2
v 14.2 0.5 6.2
v 14.1 0.5 6.2
v 14 0.5 6.2
v 20.3 0.5 6.3
v 14.2 0.5 6.3
v 20.6 0.6 6.1
v 20.5 0.6 6.1
v 14 0.6 6.1
v 13.9 0.6 6.1
v 20.6 0.6 6.2
v 20.5 0.6 6.2
v 20.4 0.6 6.2
v 20.3 0.6 6.2
v 14.2 0.6 6.2
v 14.1 0.6 6.2
v 14 0.6 6.2
v 13.9 0.6 6.2
v 20.4 0.6 6.3
v 20.3 0.6 6.3
v 20.1 0.6 6.3
v 14.4 0.6 6.3
v 14.2 0.6 6.3
v 14.1 0.6 6.3
v 20.1 0.6 6.4
v 14.4 0.6 6.4
v 20.5 0.7 6.2
v 20.4 0.7 6.2
v 14.1 0.7 6.2
v 14 0.7 6.2
v 20.5 0.7 6.3
v 20.4 0.7 6.3
v 20.2 0.7 6.3
v 20.1 0.7 6.3
v 14.4 0.7 6.3
v 14.3 0.7 6.3
v 14.1 0.7 6.3
v 14 0.7 6.3
v 20.2 0.7 6.4
v 20.1 0.7 6.4
v 14.4 0.7 6.4
v 14.3 0.7 6.4
v 20.3 0.8 6.3
v 20.2 0.8 6.3
v 14.3 0.8 6.3
v 14.2 0.8 6.3
v 20.3 0.8 6.4
v 20.2 0.8 6.4
v 14.3 0.8 6.4
v 14.2 0.8 6.4
v 20.4 0.9 6.3
v 20.3 0.9 6.3
v 14.2 0.9 6.3
v 14.1 0.9 6.3
v 20.4 0.9 6.4
v 20.3 0.9 6.4
v 14.2 0.9 6.4
v 14.1 0.9 6.4
v 15.2 2.4 6.4
v 14.8 2.4 6.4
v 15.2 2.4 6.5
v 14.8 2.4 6.5
v 15.1 2.5 6.5
v 14.9 2.5 6.5
v 15.1 2.5 6.6
v 14.9 2.5 6.6
v 15.1 3.2 6.5
v 14.9 3.2 6.5
v 15.1 3.2 6.6
v 14.9 3.2 6.6
v 15.2 3.3 6.4
v 14.8 3.3 6.4
v 15.2 3.3 6.5
v 14.8 3.3 6.5
v 20.4 4.8 6.3
v 20.3 4.8 6.3
v 14.2 4.8 6.3
v 14.1 4.8 6.3
v 20.4 4.8 6.4
v 20.3 4.8 6.4
v 14.2 4.8 6.4
v 14.1 4.8 6.4
v 20.3 4.9 6.3
v 20.2 4.9 6.3
v 14.3 4.9 6.3
v 14.2 4.9 6.3
v 20.3 4.9 6.4
v 20.2 4.9 6.4
v 14.3 4.9 6.4
v 14.2 4.9 6.4
v 20.5 5 6.2
v 20.4 5 6.2
v 14.1 5 6.2
v 14 5 6.2
v 20.5 5 6.3
v 20.4 5 6.3
v 20.2 5 6.3
v 20.1 5 6.3
v 14.4 5 6.3
v 14.3 5 6.3
v 14.1 5 6.3
v 14 5 6.3
v 20.2 5 6.4
v 20.1 5 6.4
v 14.4 5 6.4
v 14.3 5 6.4
v 20.6 5.1 6.1
v 20.5 5.1 6.1
v 14 5.1 6.1
v 13.9 5.1 6.1
v 20.6 5.1 6.2
v 20.5 5.1 6.2
v 20.4 5.1 6.2
v 20.3 5.1 6.2
v 14.2 5.1 6.2
v 14.1 5.1 6.2
v 14 5.1 6.2
v 13.9 5.1 6.2
v 20.4 5.1 6.3
v 20.3 5.1 6.3
v 20.1 5.1 6.3
v 14.4 5.1 6.3
v 14.2 5.1 6.3
v 14.1 5.1 6.3
v 20.1 5.1 6.4
v 14.4 5.1 6.4
v 20.5 5.2 6.1
v 20.4 5.2 6.1
v 14.1 5.2 6.1
v 14 5.2 6.1
v 20.5 5.2 6.2
v 20.4 5.2 6.2
v 20.3 5.2 6.2
v 14.2 5.2 6.2
v 14.1 5.2 6.2
v 14 5.2 6.2
v 20.3 5.2 6.3
v 14.2 5.2 6.3
v 20.4 5.3 6.1
v 14.1 5.3 6.1
v 20.4 5.3 6.2
v 14.1 5.3 6.2

# faces
f 3/3/1 2/3/1 1/3/1
f 4/3/1 2/3/1 3/3/1
f 7/3/1 6/3/1 5/3/1
f 8/3/1 6/3/1 7/3/1
f 11/2/1 10/2/1 9/2/1
f 12/2/1 10/2/1 11/2/1
f 15/3/1 14/3/1 13/3/1
f 16/3/1 14/3/1 15/3/1
f 19/3/1 18/3/1 17/3/1
f 20/3/1 18/3/1 19/3/1
f 23/2/1 22/2/1 21/2/1
f 24/2/1 22/2/1 23/2/1
f 27/3/1 26/3/1 25/3/1
f 28/3/1 26/3/1 27/3/1
f 31/2/1 30/2/1 29/2/1
f 32/2/1 30/2/1 31/2/1
f 35/3/1 34/3/1 33/3/1
f 36/3/1 34/3/1 35/3/1
f 39/2/1 38/2/1 37/2/1
f 40/2/1 38/2/1 39/2/1
f 43/3/1 42/3/1 41/3/1
f 44/3/1 42/3/1 43/3/1
f 47/3/1 46/3/1 45/3/1
f 48/3/1 46/3/1 47/3/1
f 51/2/1 50/2/1 49/2/1
f 52/2/1 50/2/1 51/2/1
f 55/3/1 54/3/1 53/3/1
f 56/3/1 54/3/1 55/3/1
f 59/3/1 58/3/1 57/3/1
f 60/3/1 58/3/1 59/3/1
f 63/3/1 62/3/1 61/3/1
f 64/3/1 62/3/1 63/3/1
f 67/3/1 66/3/1 65/3/1
f 68/3/1 66/3/1 67/3/1
f 71/1/1 70/1/1 69/1/1
f 72/1/1 70/1/1 71/1/1
f 75/1/1 74/1/1 73/1/1
f 76/1/1 74/1/1 75/1/1
f 77/1/2 78/1/2 79/1/2
f 79/1/2 78/1/2 80/1/2
f 81/1/2 82/1/2 83/1/2
f 83/1/2 82/1/2 84/1/2
f 85/3/2 86/3/2 87/3/2
f 87/3/2 86/3/2 88/3/2
f 89/3/2 90/3/2 91/3/2
f 91/3/2 90/3/2 92/3/2
f 93/3/2 94/3/2 95/3/2
f 95/3/2 94/3/2 96/3/2
f 97/3/2 98/3/2 99/3/2
f 99/3/2 98/3/2 100/3/2
f 101/2/2 102/2/2 103/2/2
f 103/2/2 102/2/2 104/2/2
f 105/3/2 106/3/2 107/3/2
f 107/3/2 106/3/2 108/3/2
f 109/3/2 110/3/2 111/3/2
f 111/3/2 110/3/2 112/3/2
f 113/2/2 114/2/2 115/2/2
f 115/2/2 114/2/2 116/2/2
f 117/3/2 118/3/2 119/3/2
f 119/3/2 118/3/2 120/3/2
f 121/2/2 122/2/2 123/2/2
f 123/2/2 122/2/2 124/2/2
f 125/3/2 126/3/2 127/3/2
f 127/3/2 126/3/2 128/3/2
f 129/2/2 130/2/2 131/2/2
f 131/2/2 130/2/2 132/2/2
f 133/3/2 134/3/2 135/3/2
f 135/3/2 134/3/2 136/3/2
f 137/3/2 138/3/2 139/3/2
f 139/3/2 138/3/2 140/3/2
f 141/2/2 142/2/2 143/2/2
f 143/2/2 142/2/2 144/2/2
f 145/3/2 146/3/2 147/3/2
f 147/3/2 146/3/2 148/3/2
f 149/3/2 150/3/2 151/3/2
f 151/3/2 150/3/2 152/3/2
f 156/3/3 154/3/3 153/3/3
f 157/3/3 154/3/3 156/3/3
f 160/3/3 156/3/3 155/3/3
f 160/3/3 158/3/3 157/3/3
f 160/3/3 157/3/3 156/3/3
f 161/3/3 158/3/3 160/3/3
f 163/3/3 160/3/3 159/3/3
f 163/3/3 162/3/3 161/3/3
f 163/3/3 161/3/3 160/3/3
f 164/3/3 162/3/3 163/3/3
f 165/3/3 162/3/3 164/3/3
f 166/3/3 162/3/3 165/3/3
f 167/3/3 165/3/3 164/3/3
f 168/3/3 165/3/3 167/3/3
f 169/3/3 165/3/3 168/3/3
f 170/3/3 165/3/3 169/3/3
f 171/3/3 169/3/3 168/3/3
f 172/3/3 169/3/3 171/3/3
f 173/3/4 174/3/4 176/3/4
f 176/3/4 174/3/4 177/3/4
f 177/3/4 174/3/4 178/3/4
f 178/3/4 174/3/4 179/3/4
f 175/3/4 176/3/4 182/3/4
f 176/3/4 177/3/4 182/3/4
f 182/3/4 177/3/4 183/3/4
f 183/3/4 177/3/4 184/3/4
f 178/3/4 179/3/4 185/3/4
f 179/3/4 180/3/4 185/3/4
f 185/3/4 180/3/4 186/3/4
f 186/3/4 180/3/4 187/3/4
f 182/3/4 183/3/4 189/3/4
f 181/3/4 182/3/4 189/3/4
f 189/3/4 183/3/4 190/3/4
f 187/3/4 188/3/4 191/3/4
f 186/3/4 187/3/4 191/3/4
f 191/3/4 188/3/4 192/3/4
f 181/3/4 189/3/4 193/3/4
f 192/3/4 188/3/4 196/3/4
f 193/3/4 194/3/4 197/3/4
f 181/3/4 193/3/4 197/3/4
f 197/3/4 194/3/4 198/3/4
f 198/3/4 194/3/4 199/3/4
f 195/3/4 196/3/4 202/3/4
f 196/3/4 188/3/4 203/3/4
f 202/3/4 196/3/4 203/3/4
f 203/3/4 188/3/4 204/3/4
f 199/3/4 200/3/4 205/3/4
f 198/3/4 199/3/4 205/3/4
f 205/3/4 200/3/4 206/3/4
f 206/3/4 200/3/4 207/3/4
f 201/3/4 202/3/4 208/3/4
f 202/3/4 203/3/4 208/3/4
f 208/3/4 203/3/4 209/3/4
f 209/3/4 203/3/4 210/3/4
f 206/3/4 207/3/4 211/3/4
f 208/3/4 209/3/4 211/3/4
f 207/3/4 208/3/4 211/3/4
f 211/3/4 209/3/4 212/3/4
f 213/2/4 214/2/4 216/2/4
f 216/2/4 214/2/4 217/2/4
f 217/2/4 214/2/4 218/2/4
f 218/2/4 214/2/4 219/2/4
f 215/2/4 216/2/4 222/2/4
f 216/2/4 217/2/4 222/2/4
f 222/2/4 217/2/4 223/2/4
f 223/2/4 217/2/4 224/2/4
f 218/2/4 219/2/4 225/2/4
f 219/2/4 220/2/4 225/2/4
f 225/2/4 220/2/4 226/2/4
f 226/2/4 220/2/4 227/2/4
f 222/2/4 223/2/4 229/2/4
f 221/2/4 222/2/4 229/2/4
f 229/2/4 223/2/4 230/2/4
f 227/2/4 228/2/4 231/2/4
f 226/2/4 227/2/4 231/2/4
f 231/2/4 228/2/4 232/2/4
f 221/2/4 229/2/4 233/2/4
f 233/2/4 229/2/4 234/2/4
f 232/2/4 228/2/4 235/2/4
f 235/2/4 228/2/4 236/2/4
f 221/2/4 233/2/4 237/2/4
f 236/2/4 228/2/4 240/2/4
f 237/2/4 238/2/4 241/2/4
f 239/2/4 240/2/4 244/2/4
f 241/2/4 242/2/4 245/2/4
f 221/2/4 237/2/4 245/2/4
f 237/2/4 241/2/4 245/2/4
f 245/2/4 242/2/4 246/2/4
f 246/2/4 242/2/4 247/2/4
f 243/2/4 244/2/4 250/2/4
f 244/2/4 240/2/4 251/2/4
f 240/2/4 228/2/4 251/2/4
f 250/2/4 244/2/4 251/2/4
f 251/2/4 228/2/4 252/2/4
f 247/2/4 248/2/4 253/2/4
f 246/2/4 247/2/4 253/2/4
f 253/2/4 248/2/4 254/2/4
f 254/2/4 248/2/4 255/2/4
f 249/2/4 250/2/4 256/2/4
f 250/2/4 251/2/4 256/2/4
f 256/2/4 251/2/4 257/2/4
f 257/2/4 251/2/4 258/2/4
f 254/2/4 255/2/4 259/2/4
f 256/2/4 257/2/4 259/2/4
f 255/2/4 256/2/4 259/2/4
f 259/2/4 257/2/4 260/2/4
f 261/3/4 262/3/4 264/3/4
f 264/3/4 262/3/4 265/3/4
f 263/3/4 264/3/4 268/3/4
f 265/3/4 266/3/4 268/3/4
f 264/3/4 265/3/4 268/3/4
f 268/3/4 266/3/4 269/3/4
f 267/3/4 268/3/4 272/3/4
f 269/3/4 270/3/4 272/3/4
f 268/3/4 269/3/4 272/3/4
f 272/3/4 270/3/4 273/3/4
f 271/3/4 272/3/4 275/3/4
f 273/3/4 274/3/4 275/3/4
f 272/3/4 273/3/4 275/3/4
f 275/3/4 274/3/4 276/3/4
f 271/3/4 275/3/4 277/3/4
f 276/3/4 274/3/4 278/3/4
f 271/3/4 277/3/4 279/3/4
f 277/3/4 278/3/4 279/3/4
f 279/3/4 278/3/4 280/3/4
f 278/3/4 274/3/4 281/3/4
f 280/3/4 278/3/4 281/3/4
f 281/3/4 274/3/4 282/3/4
f 280/3/4 281/3/4 283/3/4
f 283/3/4 281/3/4 284/3/4
f 284/3/4 281/3/4 285/3/4
f 285/3/4 281/3/4 286/3/4
f 284/3/4 285/3/4 287/3/4
f 287/3/4 285/3/4 288/3/4
f 288/3/4 285/3/4 289/3/4
f 289/3/4 285/3/4 290/3/4
f 288/3/4 289/3/4 291/3/4
f 291/3/4 289/3/4 292/3/4
f 293/1/4 294/1/4 295/1/4
f 295/1/4 294/1/4 296/1/4
f 293/1/4 295/1/4 297/1/4
f 296/1/4 294/1/4 298/1/4
f 293/1/4 297/1/4 299/1/4
f 297/1/4 298/1/4 299/1/4
f 298/1/4 294/1/4 300/1/4
f 299/1/4 298/1/4 300/1/4
f 301/1/4 302/1/4 303/1/4
f 303/1/4 302/1/4 304/1/4
f 307/3/5 306/3/5 305/3/5
f 308/3/5 306/3/5 307/3/5
f 313/3/5 310/3/5 309/3/5
f 314/3/5 310/3/5 313/3/5
f 317/3/5 312/3/5 311/3/5
f 318/3/5 312/3/5 317/3/5
f 319/2/5 316/2/5 315/2/5
f 320/2/5 316/2/5 319/2/5
f 325/3/5 322/3/5 321/3/5
f 326/3/5 322/3/5 325/3/5
f 331/3/5 324/3/5 323/3/5
f 332/3/5 324/3/5 331/3/5
f 333/2/5 328/2/5 327/2/5
f 334/2/5 328/2/5 333/2/5
f 337/2/5 330/2/5 329/2/5
f 338/2/5 330/2/5 337/2/5
f 339/3/5 336/3/5 335/3/5
f 340/3/5 336/3/5 339/3/5
f 345/2/5 342/2/5 341/2/5
f 346/2/5 342/2/5 345/2/5
f 351/2/5 344/2/5 343/2/5
f 352/2/5 344/2/5 351/2/5
f 353/3/5 348/3/5 347/3/5
f 354/3/5 348/3/5 353/3/5
f 355/3/5 350/3/5 349/3/5
f 356/3/5 350/3/5 355/3/5
f 361/3/5 358/3/5 357/3/5
f 362/3/5 358/3/5 361/3/5
f 363/3/5 360/3/5 359/3/5
f 364/3/5 360/3/5 363/3/5
f 369/3/5 366/3/5 365/3/5
f 370/3/5 366/3/5 369/3/5
f 371/3/5 368/3/5 367/3/5
f 372/3/5 368/3/5 371/3/5
f 375/1/5 374/1/5 373/1/5
f 376/1/5 374/1/5 375/1/5
f 379/1/5 378/1/5 377/1/5
f 380/1/5 378/1/5 379/1/5
f 381/1/6 382/1/6 383/1/6
f 383/1/6 382/1/6 384/1/6
f 385/1/6 386/1/6 387/1/6
f 387/1/6 386/1/6 388/1/6
f 389/3/6 390/3/6 393/3/6
f 393/3/6 390/3/6 394/3/6
f 391/3/6 392/3/6 395/3/6
f 395/3/6 392/3/6 396/3/6
f 397/3/6 398/3/6 401/3/6
f 401/3/6 398/3/6 402/3/6
f 399/3/6 400/3/6 403/3/6
f 403/3/6 400/3/6 404/3/6
f 405/2/6 406/2/6 409/2/6
f 409/2/6 406/2/6 410/2/6
f 407/2/6 408/2/6 415/2/6
f 415/2/6 408/2/6 416/2/6
f 411/3/6 412/3/6 417/3/6
f 417/3/6 412/3/6 418/3/6
f 413/3/6 414/3/6 419/3/6
f 419/3/6 414/3/6 420/3/6
f 421/3/6 422/3/6 425/3/6
f 425/3/6 422/3/6 426/3/6
f 423/3/6 424/3/6 431/3/6
f 431/3/6 424/3/6 432/3/6
f 427/2/6 428/2/6 433/2/6
f 433/2/6 428/2/6 434/2/6
f 429/2/6 430/2/6 437/2/6
f 437/2/6 430/2/6 438/2/6
f 435/3/6 436/3/6 439/3/6
f 439/3/6 436/3/6 440/3/6
f 441/3/6 442/3/6 445/3/6
f 445/3/6 442/3/6 446/3/6
f 443/3/6 444/3/6 449/3/6
f 449/3/6 444/3/6 450/3/6
f 447/2/6 448/2/6 451/2/6
f 451/2/6 448/2/6 452/2/6
f 453/3/6 454/3/6 455/3/6
f 455/3/6 454/3/6 456/3/6
