# MagicaVoxel @ Ephtracy

# group
o 

# material
mtllib factory4.2-15.mtl
usemtl palette

# normals
vn -1 0 0
vn 1 0 0
vn 0 0 1
vn 0 0 -1
vn 0 1 0
vn 0 -1 0

# texcoords
vt 0.0253906 0.5
vt 0.0292969 0.5

# verts
v 22 51.2 49.2
v 22 51.2 23.6
v 22 47.6 49.2
v 22 47.6 23.6
v 22 25.6 49.2
v 22 25.6 23.6
v 22.1 51.2 49.2
v 22.1 51.2 23.6
v 22.1 47.6 49.2
v 22.1 47.6 23.6
v 22.1 25.6 49.2
v 22.1 25.6 23.6
v 22 51.2 49.2
v 22 47.6 49.2
v 22 25.6 49.2
v 22.1 51.2 49.2
v 22.1 47.6 49.2
v 22.1 25.6 49.2
v 22 51.2 23.6
v 22 47.6 23.6
v 22 25.6 23.6
v 22.1 51.2 23.6
v 22.1 47.6 23.6
v 22.1 25.6 23.6
v 22 51.2 49.2
v 22.1 51.2 49.2
v 22 51.2 23.6
v 22.1 51.2 23.6
v 22 25.6 49.2
v 22.1 25.6 49.2
v 22 25.6 23.6
v 22.1 25.6 23.6

# faces
f 1/1/1 2/1/1 3/1/1
f 3/1/1 2/1/1 4/1/1
f 3/2/1 4/2/1 5/2/1
f 5/2/1 4/2/1 6/2/1
f 9/1/2 8/1/2 7/1/2
f 10/1/2 8/1/2 9/1/2
f 11/2/2 10/2/2 9/2/2
f 12/2/2 10/2/2 11/2/2
f 13/1/3 14/1/3 16/1/3
f 14/2/3 15/2/3 17/2/3
f 16/1/3 14/1/3 17/1/3
f 17/2/3 15/2/3 18/2/3
f 22/1/4 20/1/4 19/1/4
f 23/2/4 21/2/4 20/2/4
f 23/1/4 20/1/4 22/1/4
f 24/2/4 21/2/4 23/2/4
f 25/1/5 26/1/5 27/1/5
f 27/1/5 26/1/5 28/1/5
f 31/2/6 30/2/6 29/2/6
f 32/2/6 30/2/6 31/2/6
