# MagicaVoxel @ Ephtracy

# group
o 

# material
mtllib factory4.2-48.mtl
usemtl palette

# normals
vn 0 0 -1
vn 0 0 1
vn -1 0 0
vn 1 0 0
vn 0 -1 0
vn 0 1 0

# texcoords
vt 0.0253906 0.5
vt 0.0292969 0.5

# verts
v 22 0 -1.9
v 22.1 0 -1.9
v 22 3.6 -1.9
v 22.1 3.6 -1.9
v 22 25.6 -1.9
v 22.1 25.6 -1.9
v 22 0 18.2
v 22.1 0 18.2
v 22 3.6 18.2
v 22.1 3.6 18.2
v 22 12.4 18.2
v 22.1 12.4 18.2
v 22 0 12.2
v 22.1 0 12.2
v 22 3.6 12.2
v 22.1 3.6 12.2
v 22 12.4 12.2
v 22.1 12.4 12.2
v 22 0 23.6
v 22.1 0 23.6
v 22 3.6 23.6
v 22.1 3.6 23.6
v 22 25.6 23.6
v 22.1 25.6 23.6
v 22 0 -1.9
v 22 3.6 -1.9
v 22 25.6 -1.9
v 22 0 12.2
v 22 3.6 12.2
v 22 12.4 12.2
v 22 0 18.2
v 22 3.6 18.2
v 22 12.4 18.2
v 22 0 23.6
v 22 3.6 23.6
v 22 25.6 23.6
v 22.1 0 -1.9
v 22.1 3.6 -1.9
v 22.1 25.6 -1.9
v 22.1 0 12.2
v 22.1 3.6 12.2
v 22.1 12.4 12.2
v 22.1 0 18.2
v 22.1 3.6 18.2
v 22.1 12.4 18.2
v 22.1 0 23.6
v 22.1 3.6 23.6
v 22.1 25.6 23.6
v 22 0 -1.9
v 22 0 12.2
v 22 0 18.2
v 22 0 23.6
v 22.1 0 -1.9
v 22.1 0 12.2
v 22.1 0 18.2
v 22.1 0 23.6
v 22 12.4 12.2
v 22 12.4 18.2
v 22.1 12.4 12.2
v 22.1 12.4 18.2
v 22 25.6 -1.9
v 22 25.6 23.6
v 22.1 25.6 -1.9
v 22.1 25.6 23.6

# faces
f 3/1/1 2/1/1 1/1/1
f 4/1/1 2/1/1 3/1/1
f 5/2/1 4/2/1 3/2/1
f 6/2/1 4/2/1 5/2/1
f 9/1/1 8/1/1 7/1/1
f 10/1/1 8/1/1 9/1/1
f 11/2/1 10/2/1 9/2/1
f 12/2/1 10/2/1 11/2/1
f 13/1/2 14/1/2 15/1/2
f 15/1/2 14/1/2 16/1/2
f 15/2/2 16/2/2 17/2/2
f 17/2/2 16/2/2 18/2/2
f 19/1/2 20/1/2 21/1/2
f 21/1/2 20/1/2 22/1/2
f 21/2/2 22/2/2 23/2/2
f 23/2/2 22/2/2 24/2/2
f 28/1/3 26/1/3 25/1/3
f 29/2/3 27/2/3 26/2/3
f 29/1/3 26/1/3 28/1/3
f 30/2/3 27/2/3 29/2/3
f 33/2/3 27/2/3 30/2/3
f 34/1/3 32/1/3 31/1/3
f 35/2/3 33/2/3 32/2/3
f 35/1/3 32/1/3 34/1/3
f 36/2/3 27/2/3 33/2/3
f 36/2/3 33/2/3 35/2/3
f 37/1/4 38/1/4 40/1/4
f 38/2/4 39/2/4 41/2/4
f 40/1/4 38/1/4 41/1/4
f 41/2/4 39/2/4 42/2/4
f 42/2/4 39/2/4 45/2/4
f 43/1/4 44/1/4 46/1/4
f 44/2/4 45/2/4 47/2/4
f 46/1/4 44/1/4 47/1/4
f 45/2/4 39/2/4 48/2/4
f 47/2/4 45/2/4 48/2/4
f 53/1/5 50/1/5 49/1/5
f 54/1/5 50/1/5 53/1/5
f 55/1/5 52/1/5 51/1/5
f 56/1/5 52/1/5 55/1/5
f 59/2/5 58/2/5 57/2/5
f 60/2/5 58/2/5 59/2/5
f 61/2/6 62/2/6 63/2/6
f 63/2/6 62/2/6 64/2/6
