# MagicaVoxel @ Ephtracy

# group
o 

# material
mtllib factory4.5-28.mtl
usemtl palette

# normals
vn -1 0 0
vn 1 0 0
vn 0 0 1
vn 0 0 -1
vn 0 -1 0
vn 0 1 0

# texcoords
vt 0.0253906 0.5
vt 0.0292969 0.5

# verts
v 22 0 23.6
v 22 0 -1.9
v 22 0 -2
v 22 0.1 -1.9
v 22 0.1 -2
v 22 3.6 23.6
v 22 3.6 -2
v 22 25.6 23.6
v 22 25.6 -2
v 22.1 0 23.6
v 22.1 0 -1.9
v 22.1 0 -2
v 22.1 0.1 -1.9
v 22.1 0.1 -2
v 22.1 3.6 23.6
v 22.1 3.6 -2
v 22.1 25.6 23.6
v 22.1 25.6 -2
v 22 0 23.6
v 22 3.6 23.6
v 22 25.6 23.6
v 22.1 0 23.6
v 22.1 3.6 23.6
v 22.1 25.6 23.6
v 22 0 -2
v 22 0.1 -2
v 22 3.6 -2
v 22 25.6 -2
v 22.1 0 -2
v 22.1 0.1 -2
v 22.1 3.6 -2
v 22.1 25.6 -2
v 22 0 23.6
v 22.1 0 23.6
v 22 0 -1.9
v 22.1 0 -1.9
v 22 0 -2
v 22.1 0 -2
v 22 25.6 23.6
v 22.1 25.6 23.6
v 22 25.6 -2
v 22.1 25.6 -2

# faces
f 4/1/1 2/1/1 1/1/1
f 4/2/1 3/2/1 2/2/1
f 5/2/1 3/2/1 4/2/1
f 6/1/1 4/1/1 1/1/1
f 6/1/1 5/1/1 4/1/1
f 7/1/1 5/1/1 6/1/1
f 8/2/1 7/2/1 6/2/1
f 9/2/1 7/2/1 8/2/1
f 10/1/2 11/1/2 13/1/2
f 11/2/2 12/2/2 13/2/2
f 13/2/2 12/2/2 14/2/2
f 10/1/2 13/1/2 15/1/2
f 13/1/2 14/1/2 15/1/2
f 15/1/2 14/1/2 16/1/2
f 15/2/2 16/2/2 17/2/2
f 17/2/2 16/2/2 18/2/2
f 22/1/3 20/1/3 19/1/3
f 23/2/3 21/2/3 20/2/3
f 23/1/3 20/1/3 22/1/3
f 24/2/3 21/2/3 23/2/3
f 25/2/4 26/2/4 29/2/4
f 26/1/4 27/1/4 30/1/4
f 29/2/4 26/2/4 30/2/4
f 27/2/4 28/2/4 31/2/4
f 30/1/4 27/1/4 31/1/4
f 31/2/4 28/2/4 32/2/4
f 35/1/5 34/1/5 33/1/5
f 36/1/5 34/1/5 35/1/5
f 37/2/5 36/2/5 35/2/5
f 38/2/5 36/2/5 37/2/5
f 39/2/6 40/2/6 41/2/6
f 41/2/6 40/2/6 42/2/6
