# MagicaVoxel @ Ephtracy

# group
o factory4

# material
mtllib factory4.2+-4-factory4.2-34.mtl
usemtl palette

# normals
vn -1 0 0
vn 1 0 0
vn 0 0 1
vn 0 0 -1
vn 0 -1 0
vn 0 1 0

# texcoords
vt 0.0253906 0.5
vt 0.0292969 0.5

# verts
v -39 0 23.6
v -39 0 23.2
v -39 0 6.5
v -39 0 -1.9
v -39 3.6 23.6
v -39 3.6 23.2
v -39 3.6 6.5
v -39 3.6 -1.9
v -39 21.2 23.2
v -39 21.2 6.5
v -39 25.6 23.6
v -39 25.6 -1.9
v -38.8 0 23.6
v -38.8 0 23.2
v -38.8 0 6.5
v -38.8 0 -1.9
v -38.8 3.6 23.6
v -38.8 3.6 23.2
v -38.8 3.6 6.5
v -38.8 3.6 -1.9
v -38.8 21.2 23.2
v -38.8 21.2 6.5
v -38.8 25.6 23.6
v -38.8 25.6 -1.9
v -39 0 23.6
v -39 3.6 23.6
v -39 25.6 23.6
v -38.8 0 23.6
v -38.8 3.6 23.6
v -38.8 25.6 23.6
v -39 0 6.5
v -39 3.6 6.5
v -39 21.2 6.5
v -38.8 0 6.5
v -38.8 3.6 6.5
v -38.8 21.2 6.5
v -39 0 23.2
v -39 3.6 23.2
v -39 21.2 23.2
v -38.8 0 23.2
v -38.8 3.6 23.2
v -38.8 21.2 23.2
v -39 0 -1.9
v -39 3.6 -1.9
v -39 25.6 -1.9
v -38.8 0 -1.9
v -38.8 3.6 -1.9
v -38.8 25.6 -1.9
v -39 0 23.6
v -38.8 0 23.6
v -39 0 23.2
v -38.8 0 23.2
v -39 0 6.5
v -38.8 0 6.5
v -39 0 -1.9
v -38.8 0 -1.9
v -39 21.2 23.2
v -38.8 21.2 23.2
v -39 21.2 6.5
v -38.8 21.2 6.5
v -39 25.6 23.6
v -38.8 25.6 23.6
v -39 25.6 -1.9
v -38.8 25.6 -1.9

# faces
f 5/1/1 2/1/1 1/1/1
f 6/1/1 2/1/1 5/1/1
f 7/1/1 4/1/1 3/1/1
f 8/1/1 4/1/1 7/1/1
f 9/2/1 6/2/1 5/2/1
f 10/2/1 8/2/1 7/2/1
f 11/2/1 9/2/1 5/2/1
f 11/2/1 10/2/1 9/2/1
f 12/2/1 8/2/1 10/2/1
f 12/2/1 10/2/1 11/2/1
f 13/1/2 14/1/2 17/1/2
f 17/1/2 14/1/2 18/1/2
f 15/1/2 16/1/2 19/1/2
f 19/1/2 16/1/2 20/1/2
f 17/2/2 18/2/2 21/2/2
f 19/2/2 20/2/2 22/2/2
f 17/2/2 21/2/2 23/2/2
f 21/2/2 22/2/2 23/2/2
f 22/2/2 20/2/2 24/2/2
f 23/2/2 22/2/2 24/2/2
f 28/1/3 26/1/3 25/1/3
f 29/2/3 27/2/3 26/2/3
f 29/1/3 26/1/3 28/1/3
f 30/2/3 27/2/3 29/2/3
f 34/1/3 32/1/3 31/1/3
f 35/2/3 33/2/3 32/2/3
f 35/1/3 32/1/3 34/1/3
f 36/2/3 33/2/3 35/2/3
f 37/1/4 38/1/4 40/1/4
f 38/2/4 39/2/4 41/2/4
f 40/1/4 38/1/4 41/1/4
f 41/2/4 39/2/4 42/2/4
f 43/1/4 44/1/4 46/1/4
f 44/2/4 45/2/4 47/2/4
f 46/1/4 44/1/4 47/1/4
f 47/2/4 45/2/4 48/2/4
f 51/1/5 50/1/5 49/1/5
f 52/1/5 50/1/5 51/1/5
f 55/1/5 54/1/5 53/1/5
f 56/1/5 54/1/5 55/1/5
f 59/2/5 58/2/5 57/2/5
f 60/2/5 58/2/5 59/2/5
f 61/2/6 62/2/6 63/2/6
f 63/2/6 62/2/6 64/2/6
